<?xml version="1.0" encoding="utf-8"?>
<!-- Generator: Adobe Illustrator 24.1.2, SVG Export Plug-In . SVG Version: 6.00 Build 0)  -->
<svg version="1.1" id="Layer_1" xmlns="http://www.w3.org/2000/svg" xmlns:xlink="http://www.w3.org/1999/xlink" x="0px" y="0px"
	 viewBox="0 0 120 120" style="enable-background:new 0 0 120 120;" xml:space="preserve">
<style type="text/css">
	.st0{fill:#231F20;}
	.st1{fill:none;stroke:#FFFFFF;stroke-width:6;stroke-linecap:round;stroke-linejoin:round;}
	.st2{fill:none;stroke:#F44336;stroke-width:6;stroke-linecap:round;stroke-linejoin:round;}
</style>
<g id="Group_79" transform="translate(2558 1165)">
	<circle id="Ellipse_61" class="st0" cx="-2498" cy="-1105" r="60"/>
</g>
<g id="_1">
	<circle class="st1" cx="50.1" cy="50.1" r="7"/>
	<circle class="st1" cx="70.9" cy="70.9" r="7"/>
	<line class="st1" x1="51" y1="74.6" x2="70" y2="46.4"/>
	<path class="st2" d="M91.4,60.5c0-6.1,3.3-13.2,0.4-18.1c-2.9-5.1-10.8-5.7-15.9-8.7c-4.9-2.9-9.3-9.4-15.5-9.4S50,30.9,45,33.7
		c-5.1,2.9-12.9,3.6-15.9,8.7c-2.9,4.9,0.4,12,0.4,18.1s-3.3,13.2-0.4,18.1c2.9,5.1,10.8,5.7,15.9,8.7c4.9,2.9,9.3,9.4,15.5,9.4
		S71,90.1,76,87.3c5.1-2.9,12.9-3.6,15.9-8.7C94.7,73.7,91.4,66.6,91.4,60.5z"/>
</g>
</svg>
