<?xml version="1.0" encoding="utf-8"?>
<!-- Generator: Adobe Illustrator 24.1.2, SVG Export Plug-In . SVG Version: 6.00 Build 0)  -->
<svg version="1.1" id="Layer_1" xmlns="http://www.w3.org/2000/svg" xmlns:xlink="http://www.w3.org/1999/xlink" x="0px" y="0px"
	 viewBox="0 0 120 120" style="enable-background:new 0 0 120 120;" xml:space="preserve">
<style type="text/css">
	.st0{fill:#231F20;}
	.st1{fill:#F44336;stroke:#F44336;stroke-width:2;stroke-miterlimit:10;}
	.st2{fill:#FFFFFF;}
</style>
<g id="Group_79" transform="translate(2558 1165)">
	<circle id="Ellipse_61" class="st0" cx="-2498" cy="-1105" r="60"/>
</g>
<path class="st1" d="M83.7,27.3H36.3c-0.7,0-1.3,0.5-1.3,1.1v63.3c0,0.4,0.3,0.8,0.8,1c0.5,0.2,1,0.1,1.4-0.2l22.2-16.3l23.5,16.3
	c0.4,0.3,0.9,0.3,1.4,0.1s0.7-0.5,0.7-1V28.3C85,27.8,84.4,27.3,83.7,27.3z M82.4,89.4L60.2,74c-0.5-0.3-1.2-0.3-1.7,0L37.6,89.3
	V29.4h44.9V89.4z"/>
<g id="icons">
	<path id="favorite" class="st2" d="M61.4,39.9l3.4,7.5c0.1,0.4,0.6,0.7,1,0.9l7.8,1.2c1.3,0,1.8,1.5,0.9,2.4l-5.7,5.8
		c-0.3,0.3-0.4,0.9-0.4,1.3l1.3,8.1c0.1,1.2-1,2.2-2.1,1.6l-7-3.9c-0.4-0.3-0.9-0.3-1.3,0l-7,3.9c-1,0.6-2.4-0.3-2.1-1.6l1.3-8.1
		c0.1-0.4-0.1-1-0.4-1.3l-5.7-5.8c-0.7-0.9-0.3-2.4,0.9-2.5l7.8-1.2c0.4,0,0.9-0.4,1-0.9l3.4-7.5C59.3,38.7,60.8,38.7,61.4,39.9z"/>
</g>
</svg>
