<?xml version="1.0" encoding="utf-8"?>
<!-- Generator: Adobe Illustrator 24.1.2, SVG Export Plug-In . SVG Version: 6.00 Build 0)  -->
<svg version="1.1" id="Layer_1" xmlns="http://www.w3.org/2000/svg" xmlns:xlink="http://www.w3.org/1999/xlink" x="0px" y="0px"
	 viewBox="0 0 250 100" style="enable-background:new 0 0 250 100;" xml:space="preserve">
<style type="text/css">
	.st0{fill:#F44336;stroke:#F44336;stroke-width:3;stroke-miterlimit:10;}
	.st1{fill:#212121;stroke:#212121;stroke-width:3;stroke-miterlimit:10;}
</style>
<g>
	<path class="st0" d="M7.1,37.1c-0.8,0-1.5-0.3-2.1-0.9C4.3,35.6,4,34.9,4,34.1c0-0.8,0.3-1.5,0.9-2.1C5.5,31.3,6.2,31,7.1,31
		c0.8,0,1.5,0.3,2.1,0.9c0.6,0.6,0.9,1.3,0.9,2.1c0,0.8-0.3,1.5-0.9,2.1C8.6,36.8,7.9,37.1,7.1,37.1z M4.8,66.1v-25h4.6v25H4.8z"/>
	<path class="st0" d="M16.3,66.1V48.2c0-2.2,0.6-4,1.9-5.2c1.3-1.3,3-1.9,5.2-1.9h5.1v3.9h-4.3c-1.1,0-1.9,0.3-2.5,0.9
		c-0.6,0.6-0.9,1.5-0.9,2.6v17.6H16.3z"/>
	<path class="st0" d="M43.1,66.7c-2.4,0-4.5-0.6-6.3-1.7c-1.8-1.2-3.1-2.7-4.1-4.7c-0.9-2-1.4-4.2-1.4-6.6c0-2.4,0.5-4.7,1.6-6.6
		c1-2,2.5-3.5,4.5-4.7c2-1.2,4.3-1.7,7.1-1.7c2.6,0,4.9,0.6,6.8,1.7c1.9,1.1,3.4,2.7,4.4,4.7c1,2,1.5,4.1,1.5,6.6v12.6h-4.6V61h-0.1
		c-0.5,0.9-1.2,1.9-2,2.7s-1.9,1.6-3.1,2.1C46.2,66.4,44.7,66.7,43.1,66.7z M44.2,62.8c1.6,0,3.1-0.4,4.3-1.2
		c1.3-0.8,2.2-1.9,2.9-3.3c0.7-1.4,1.1-3,1.1-4.8c0-1.7-0.3-3.3-1-4.7c-0.7-1.4-1.6-2.5-2.9-3.3c-1.2-0.8-2.7-1.2-4.4-1.2
		c-1.8,0-3.3,0.4-4.5,1.2c-1.3,0.8-2.2,1.9-2.9,3.3c-0.7,1.4-1,3-1,4.7c0,1.7,0.3,3.2,1,4.6c0.7,1.4,1.6,2.5,2.8,3.3
		C41,62.4,42.5,62.8,44.2,62.8z"/>
	<path class="st0" d="M74.7,66.7c-2.4,0-4.5-0.6-6.3-1.7c-1.8-1.2-3.1-2.7-4.1-4.7c-0.9-2-1.4-4.2-1.4-6.6c0-2.4,0.5-4.7,1.6-6.6
		c1-2,2.5-3.5,4.5-4.7c2-1.2,4.3-1.7,7.1-1.7c2.6,0,4.9,0.6,6.8,1.7c1.9,1.1,3.4,2.7,4.4,4.7s1.5,4.1,1.5,6.6v12.6h-4.6V61h-0.1
		c-0.5,0.9-1.2,1.9-2,2.7s-1.9,1.6-3.1,2.1C77.8,66.4,76.4,66.7,74.7,66.7z M75.9,62.8c1.6,0,3.1-0.4,4.3-1.2
		c1.3-0.8,2.2-1.9,2.9-3.3c0.7-1.4,1.1-3,1.1-4.8c0-1.7-0.3-3.3-1-4.7c-0.7-1.4-1.6-2.5-2.9-3.3c-1.2-0.8-2.7-1.2-4.4-1.2
		c-1.8,0-3.3,0.4-4.5,1.2c-1.3,0.8-2.2,1.9-2.9,3.3c-0.7,1.4-1,3-1,4.7c0,1.7,0.3,3.2,1,4.6c0.7,1.4,1.6,2.5,2.8,3.3
		C72.6,62.4,74.1,62.8,75.9,62.8z"/>
	<path class="st0" d="M96,66.1V51.6c0-2.2,0.5-4.2,1.5-5.8c1-1.7,2.4-3,4.1-3.9c1.8-0.9,3.8-1.4,6-1.4c2.3,0,4.3,0.5,6.1,1.4
		c1.7,0.9,3.1,2.2,4.1,3.9c1,1.7,1.5,3.6,1.5,5.8v14.5h-4.5V51.7c0-1.5-0.3-2.8-1-3.9c-0.7-1.1-1.6-1.9-2.6-2.5
		c-1.1-0.6-2.3-0.9-3.5-0.9c-1.2,0-2.4,0.3-3.5,0.9c-1.1,0.6-2,1.4-2.6,2.5c-0.7,1.1-1,2.4-1,3.9v14.4H96z"/>
	<path class="st1" d="M139.1,66.7c-2.4,0-4.6-0.5-6.5-1.6c-1.9-1-3.5-2.6-4.6-4.5c-1.1-2-1.7-4.4-1.7-7.1V30.3h4.5v15.2h0.1
		c0.6-1,1.3-1.9,2.2-2.6c0.9-0.8,1.9-1.3,3.1-1.8c1.2-0.4,2.4-0.6,3.7-0.6c2.3,0,4.4,0.5,6.2,1.6c1.8,1,3.3,2.5,4.3,4.4
		c1.1,1.9,1.6,4.2,1.6,6.8c0,2.1-0.3,3.9-1,5.6c-0.6,1.7-1.5,3.1-2.7,4.2c-1.1,1.2-2.5,2.1-4.1,2.7C142.7,66.3,141,66.7,139.1,66.7z
		 M139.1,62.8c1.5,0,2.9-0.4,4.2-1.1c1.3-0.8,2.3-1.8,3-3.2c0.8-1.4,1.1-3,1.1-4.9c0-1.8-0.4-3.4-1.1-4.8c-0.7-1.4-1.7-2.5-3-3.2
		c-1.2-0.8-2.6-1.2-4.2-1.2c-1.5,0-2.9,0.4-4.2,1.1c-1.3,0.8-2.3,1.8-3,3.2c-0.7,1.4-1.1,3-1.1,4.9c0,1.9,0.4,3.5,1.1,4.9
		c0.7,1.4,1.7,2.4,3,3.2C136.2,62.4,137.6,62.8,139.1,62.8z"/>
	<path class="st1" d="M168.2,66.7c-2.4,0-4.5-0.6-6.3-1.7c-1.8-1.2-3.1-2.7-4.1-4.7c-0.9-2-1.4-4.2-1.4-6.6c0-2.4,0.5-4.7,1.6-6.6
		c1-2,2.5-3.5,4.5-4.7c2-1.2,4.3-1.7,7.1-1.7c2.6,0,4.9,0.6,6.8,1.7c1.9,1.1,3.4,2.7,4.4,4.7c1,2,1.5,4.1,1.5,6.6v12.6h-4.6V61h-0.1
		c-0.5,0.9-1.2,1.9-2,2.7s-1.9,1.6-3.1,2.1C171.3,66.4,169.8,66.7,168.2,66.7z M169.3,62.8c1.6,0,3.1-0.4,4.3-1.2
		c1.3-0.8,2.2-1.9,2.9-3.3c0.7-1.4,1.1-3,1.1-4.8c0-1.7-0.3-3.3-1-4.7c-0.7-1.4-1.6-2.5-2.9-3.3c-1.2-0.8-2.7-1.2-4.4-1.2
		c-1.8,0-3.3,0.4-4.5,1.2c-1.3,0.8-2.2,1.9-2.9,3.3c-0.7,1.4-1,3-1,4.7c0,1.7,0.3,3.2,1,4.6c0.7,1.4,1.6,2.5,2.8,3.3
		C166.1,62.4,167.6,62.8,169.3,62.8z"/>
	<path class="st1" d="M202.1,66.7c-2.4,0-4.6-0.5-6.5-1.6c-1.9-1-3.5-2.6-4.6-4.5c-1.1-2-1.7-4.4-1.7-7.1V30.3h4.5v15.2h0.1
		c0.6-1,1.3-1.9,2.2-2.6c0.9-0.8,1.9-1.3,3.1-1.8c1.2-0.4,2.4-0.6,3.7-0.6c2.3,0,4.4,0.5,6.2,1.6c1.8,1,3.3,2.5,4.3,4.4
		c1.1,1.9,1.6,4.2,1.6,6.8c0,2.1-0.3,3.9-1,5.6c-0.6,1.7-1.5,3.1-2.7,4.2c-1.1,1.2-2.5,2.1-4.1,2.7C205.7,66.3,204,66.7,202.1,66.7z
		 M202.1,62.8c1.5,0,2.9-0.4,4.2-1.1c1.3-0.8,2.3-1.8,3-3.2c0.8-1.4,1.1-3,1.1-4.9c0-1.8-0.4-3.4-1.1-4.8c-0.7-1.4-1.7-2.5-3-3.2
		c-1.2-0.8-2.6-1.2-4.2-1.2c-1.5,0-2.9,0.4-4.2,1.1c-1.3,0.8-2.3,1.8-3,3.2c-0.7,1.4-1.1,3-1.1,4.9c0,1.9,0.4,3.5,1.1,4.9
		c0.7,1.4,1.7,2.4,3,3.2C199.2,62.4,200.6,62.8,202.1,62.8z"/>
	<path class="st1" d="M231.1,66.7c-2.4,0-4.5-0.6-6.3-1.7c-1.8-1.2-3.1-2.7-4.1-4.7c-0.9-2-1.4-4.2-1.4-6.6c0-2.4,0.5-4.7,1.6-6.6
		c1-2,2.5-3.5,4.5-4.7c2-1.2,4.3-1.7,7.1-1.7c2.6,0,4.9,0.6,6.8,1.7c1.9,1.1,3.4,2.7,4.4,4.7c1,2,1.5,4.1,1.5,6.6v12.6h-4.6V61h-0.1
		c-0.5,0.9-1.2,1.9-2,2.7s-1.9,1.6-3.1,2.1C234.3,66.4,232.8,66.7,231.1,66.7z M232.3,62.8c1.6,0,3.1-0.4,4.3-1.2
		c1.3-0.8,2.2-1.9,2.9-3.3c0.7-1.4,1.1-3,1.1-4.8c0-1.7-0.3-3.3-1-4.7c-0.7-1.4-1.6-2.5-2.9-3.3c-1.2-0.8-2.7-1.2-4.4-1.2
		c-1.8,0-3.3,0.4-4.5,1.2c-1.3,0.8-2.2,1.9-2.9,3.3c-0.7,1.4-1,3-1,4.7c0,1.7,0.3,3.2,1,4.6c0.7,1.4,1.6,2.5,2.8,3.3
		C229,62.4,230.5,62.8,232.3,62.8z"/>
</g>
</svg>
