<?xml version="1.0" encoding="utf-8"?>
<!-- Generator: Adobe Illustrator 24.1.2, SVG Export Plug-In . SVG Version: 6.00 Build 0)  -->
<svg version="1.1" id="Layer_1" xmlns="http://www.w3.org/2000/svg" xmlns:xlink="http://www.w3.org/1999/xlink" x="0px" y="0px"
	 viewBox="0 0 200 200" style="enable-background:new 0 0 200 200;" xml:space="preserve">
<style type="text/css">
	.st0{fill:#66B933;}
	.st1{fill:#999999;}
</style>
<path class="st0" d="M108.6,102.4L108.6,102.4l0-0.1h0.1v0h-0.2v0h0L108.6,102.4 M108.7,102.4v-0.2h0.1L108.7,102.4L108.7,102.4
	l0.1-0.2h0.1v0.2h0v-0.1l0,0l0,0.1H108.7l0-0.1l0,0L108.7,102.4L108.7,102.4"/>
<path class="st1" d="M103.9,62c6-8,14.4-8,14.4-8s1.3,7.5-4.8,14.7c-6.4,7.7-13.7,6.4-13.7,6.4S98.5,69.1,103.9,62z M100.6,80.4
	c3.1,0,8.9-4.3,16.4-4.3c12.9,0,18,9.2,18,9.2s-9.9,5.1-9.9,17.4c0,13.9,12.4,18.7,12.4,18.7s-8.7,24.4-20.4,24.4
	c-5.4,0-9.6-3.6-15.2-3.6c-5.8,0-11.5,3.8-15.2,3.8c-10.7,0-24.2-23.1-24.2-41.7c0-18.3,11.4-27.9,22.1-27.9
	C91.6,76.4,97,80.4,100.6,80.4L100.6,80.4z"/>
</svg>
