<?xml version="1.0" encoding="utf-8"?>
<!-- Generator: Adobe Illustrator 24.1.2, SVG Export Plug-In . SVG Version: 6.00 Build 0)  -->
<svg version="1.1" id="Layer_1" xmlns="http://www.w3.org/2000/svg" xmlns:xlink="http://www.w3.org/1999/xlink" x="0px" y="0px"
	 viewBox="0 0 200 200" style="enable-background:new 0 0 200 200;" xml:space="preserve">
<style type="text/css">
	.st0{fill:#66B933;}
	.st1{fill:#FFFFFF;}
</style>
<path class="st0" d="M108.6,102.4L108.6,102.4l0-0.1h0.1v0h-0.2v0h0L108.6,102.4 M108.7,102.4v-0.2h0.1L108.7,102.4L108.7,102.4
	l0.1-0.2h0.1v0.2h0v-0.1l0,0l0,0.1H108.7l0-0.1l0,0L108.7,102.4L108.7,102.4"/>
<g>
	<g>
		<path class="st1" d="M165,165c-43.3,0-86.7,0-130,0c0-43.3,0-86.7,0-130c43.3,0,86.7,0,130,0C165,78.3,165,121.7,165,165z
			 M72.4,100.1c0-9.4-7.7-17.2-17.1-17.3c-9.6,0-17.4,7.7-17.4,17.1c0,9.6,7.7,17.4,17.2,17.4C64.6,117.3,72.3,109.6,72.4,100.1z
			 M96.4,99.5c0.1-0.2,0.2-0.3,0.3-0.4c1.4-1.9,1.6-4,0.6-6c-1-2.1-2.8-3.2-5.2-3.1c-4.1,0-8.2,0-12.3,0c-0.2,0-0.5,0-0.7,0
			c0,6.6,0,13.1,0,19.6c0.1,0,0.2,0,0.2,0c4.7,0,9.3,0,14,0c2.8,0,5.2-2.6,5.3-5.4C98.5,102.3,97.8,100.8,96.4,99.5z M110.8,89.7
			c-0.9,0.1-1.8,0.2-2.6,0.4c-4.3,1.1-7.1,4.2-7.6,8.6c-0.4,3.1,0.5,5.8,2.7,8.1c2.4,2.4,5.3,3.3,8.7,3c6.1-0.5,10.5-6.6,8.8-12.6
			C119.5,92.6,115.7,89.8,110.8,89.7z M162,109.5c-0.1-0.2-0.1-0.3-0.2-0.5c-3-6.2-6.1-12.4-9.1-18.7c-0.2-0.4-0.4-0.5-0.7-0.4
			c-1.4,0-2.9,0-4.4,0c-0.4,0-0.6,0.1-0.8,0.5c-3,6.2-6,12.3-9.1,18.5c-0.1,0.2-0.2,0.4-0.3,0.6c1.5,0,3,0,4.4,0
			c0.2,0,0.5-0.2,0.6-0.4c0.5-1,1-2,1.4-3c0.2-0.4,0.4-0.6,0.9-0.6c2.2,0,4.4,0,6.6,0c0.2,0,0.6,0,0.6-0.2c0.5-1,1-2,1.5-3.2
			c-2.7,0-5.2,0-7.8,0c1.4-2.9,2.7-5.8,4.1-8.7c0.3,0.6,0.6,1.2,0.8,1.7c2.2,4.6,4.4,9.2,6.6,13.8c0.1,0.2,0.3,0.5,0.5,0.5
			C159.1,109.5,160.5,109.5,162,109.5z M141.4,89.9c-1.6,0-3.1,0-4.6,0c-0.2,0-0.4,0.2-0.6,0.3c-0.9,1.2-1.9,2.4-2.8,3.7
			c-0.8,1.1-1.7,2.2-2.5,3.4c-0.1-0.2-0.2-0.3-0.3-0.4c-1.6-2.2-3.3-4.4-4.9-6.5c-0.3-0.3-0.5-0.5-1-0.5c-1.3,0-2.6,0-3.8,0
			c-0.2,0-0.3,0-0.5,0.1c0.2,0.2,0.3,0.4,0.4,0.5c2.5,3.3,4.9,6.6,7.4,9.9c0.2,0.3,0.3,0.6,0.3,0.9c0,2.5,0,5,0,7.5
			c0,0.2,0,0.5,0,0.7c1.6,0,3.1,0,4.6,0c0-0.3,0-0.5,0-0.8c0-2.4,0-4.9,0-7.3c0-0.3,0.1-0.7,0.3-0.9c1.7-2.3,3.4-4.6,5.1-6.8
			C139.5,92.4,140.4,91.2,141.4,89.9z M159.9,91.8c0-1-0.7-1.8-1.7-1.8c-1,0-1.8,0.7-1.8,1.7c0,1,0.7,1.8,1.7,1.8
			C159.2,93.6,159.9,92.8,159.9,91.8z"/>
		<path d="M72.4,100.1c0,9.5-7.8,17.3-17.3,17.2c-9.5,0-17.2-7.8-17.2-17.4c0-9.5,7.8-17.2,17.4-17.1
			C64.6,82.8,72.4,90.6,72.4,100.1z M55.1,85.2c-8.2,0-14.8,6.6-14.8,14.8c0,8.2,6.6,14.8,14.8,14.8c8.2,0,14.8-6.6,14.8-14.8
			C69.9,91.9,63.3,85.2,55.1,85.2z"/>
		<path d="M96.4,99.5c1.4,1.3,2.1,2.8,2.1,4.6c-0.1,2.8-2.5,5.4-5.3,5.4c-4.6,0.1-9.3,0-14,0c-0.1,0-0.1,0-0.2,0c0-6.5,0-13,0-19.6
			c0.2,0,0.5,0,0.7,0c4.1,0,8.2,0,12.3,0c2.4,0,4.1,1.1,5.2,3.1c1,2.1,0.8,4.1-0.6,6C96.6,99.2,96.5,99.4,96.4,99.5z M87.7,106.5
			c1.4,0,2.8,0,4.2,0c0.5,0,1-0.1,1.4-0.2c1.1-0.4,1.7-1.7,1.5-2.7c-0.3-1.4-1.2-2.2-2.7-2.2c-2.9,0-5.8,0-8.8,0
			c-0.4,0-0.6,0.1-0.6,0.6c0,1.4,0,2.7,0,4.1c0,0.4,0.1,0.6,0.6,0.6C84.7,106.5,86.2,106.5,87.7,106.5z M82.7,98.2
			c0.1,0,0.1,0.1,0.1,0.1c2.9,0,5.9,0.1,8.8,0c1.5,0,2.4-1.2,2.4-2.7C94,94.1,92.9,93,91.3,93c-2.7,0-5.4,0-8.1,0
			c-0.1,0-0.3,0-0.4,0.1C82.7,94.8,82.7,96.5,82.7,98.2z"/>
		<path d="M110.8,89.7c4.8,0.1,8.7,2.9,9.9,7.5c1.7,5.9-2.7,12.1-8.8,12.6c-3.4,0.3-6.3-0.6-8.7-3c-2.2-2.2-3.1-5-2.7-8.1
			c0.5-4.4,3.3-7.5,7.6-8.6C109.1,89.8,109.9,89.8,110.8,89.7z M104.5,99.7c0.1,0.6,0.1,1.2,0.2,1.7c0.7,3.3,4.1,5.3,7.3,4.6
			c2.5-0.6,4-2.1,4.6-4.5c0.6-2.4,0.2-4.6-1.5-6.4c-1.7-1.9-4.5-2.4-6.9-1.5C106.2,94.6,104.5,97,104.5,99.7z"/>
		<path d="M162,109.5c-1.5,0-2.9,0-4.3,0c-0.2,0-0.4-0.3-0.5-0.5c-2.2-4.6-4.4-9.2-6.6-13.8c-0.3-0.5-0.5-1.1-0.8-1.7
			c-1.4,2.9-2.7,5.8-4.1,8.7c2.6,0,5.1,0,7.8,0c-0.5,1.2-1,2.2-1.5,3.2c-0.1,0.1-0.4,0.2-0.6,0.2c-2.2,0-4.4,0-6.6,0
			c-0.5,0-0.7,0.1-0.9,0.6c-0.4,1-0.9,2-1.4,3c-0.1,0.2-0.4,0.4-0.6,0.4c-1.4,0-2.9,0-4.4,0c0.1-0.2,0.2-0.4,0.3-0.6
			c3-6.2,6-12.3,9.1-18.5c0.2-0.4,0.4-0.5,0.8-0.5c1.4,0,2.9,0,4.4,0c0.4,0,0.6,0.1,0.7,0.4c3,6.2,6.1,12.5,9.1,18.7
			C161.8,109.2,161.9,109.3,162,109.5z"/>
		<path d="M141.4,89.9c-1,1.3-1.9,2.5-2.8,3.7c-1.7,2.3-3.4,4.6-5.1,6.8c-0.2,0.3-0.3,0.6-0.3,0.9c0,2.4,0,4.9,0,7.3
			c0,0.2,0,0.5,0,0.8c-1.5,0-3.1,0-4.6,0c0-0.2,0-0.4,0-0.7c0-2.5,0-5,0-7.5c0-0.3-0.1-0.7-0.3-0.9c-2.4-3.3-4.9-6.6-7.4-9.9
			c-0.1-0.2-0.2-0.3-0.4-0.5c0.2,0,0.4-0.1,0.5-0.1c1.3,0,2.6,0,3.8,0c0.4,0,0.7,0.2,1,0.5c1.6,2.2,3.3,4.4,4.9,6.5
			c0.1,0.1,0.2,0.2,0.3,0.4c0.9-1.1,1.7-2.3,2.5-3.4c0.9-1.2,1.8-2.5,2.8-3.7c0.1-0.2,0.4-0.3,0.6-0.3
			C138.3,89.9,139.7,89.9,141.4,89.9z"/>
		<path d="M159.9,91.8c0,1-0.8,1.7-1.8,1.7c-1,0-1.7-0.8-1.7-1.8c0-1,0.7-1.7,1.8-1.7C159.2,90.1,159.9,90.8,159.9,91.8z
			 M159.6,91.8c0-0.8-0.6-1.5-1.4-1.5c-0.8,0-1.4,0.7-1.4,1.5c0,0.9,0.6,1.5,1.4,1.5C159,93.3,159.6,92.6,159.6,91.8z"/>
		<path class="st1" d="M55.1,85.2c8.2,0,14.8,6.6,14.8,14.8c0,8.2-6.6,14.8-14.8,14.8c-8.2,0-14.9-6.6-14.8-14.8
			C40.3,91.8,46.9,85.2,55.1,85.2z M56.3,99c0-1.6,0-3.1,0-4.6c0-1.2,0-2.4,0-3.6c0-0.6-0.3-0.9-0.8-1.1c-0.5-0.2-1-0.1-1.3,0.4
			c-0.2,0.3-0.3,0.7-0.3,1.1c0,2.4,0,4.8,0,7.3c0,0.2,0,0.4,0,0.6C54.7,99,55.5,99,56.3,99z M54,101.1c0,0.1-0.1,0.2-0.1,0.2
			c0,2.6,0,5.2,0,7.8c0,0.8,0.5,1.4,1.3,1.3c0.7,0,1.1-0.6,1.1-1.4c0-2.4,0-4.9,0-7.3c0-0.2,0-0.4,0-0.7
			C55.5,101.1,54.7,101.1,54,101.1z M61.1,99c0-2.1,0-4.2,0-6.3c0-0.8-0.5-1.3-1.2-1.4c-0.8,0-1.3,0.5-1.3,1.3c0,2.1,0,4.1,0,6.2
			c0,0.1,0.1,0.1,0.1,0.2C59.5,99,60.3,99,61.1,99z M58.7,101.1c0,2.2,0,4.4,0,6.5c0,0.7,0.6,1.2,1.2,1.1c0.7,0,1.2-0.5,1.2-1.3
			c0-1.2,0-2.3,0-3.5c0-0.9,0-1.9,0-2.8C60.3,101.1,59.5,101.1,58.7,101.1z M49.1,99c0.8,0,1.6,0,2.4,0c0-2.2,0-4.4,0-6.6
			c0-0.6-0.5-1.1-1.2-1.1c-0.6,0-1.2,0.4-1.2,1.1C49.1,94.6,49.1,96.8,49.1,99z M49.2,101.1c0,0.1,0,0.2,0,0.3c0,2,0,4,0,6
			c0,0.8,0.5,1.3,1.2,1.3c0.7,0,1.1-0.5,1.1-1.3c0-1.2,0-2.4,0-3.6c0-0.9,0-1.8,0-2.8C50.7,101.1,49.9,101.1,49.2,101.1z M65.9,99
			c0-1.3,0-2.6,0-3.9c0-0.6-0.6-1.1-1.1-1.1c-0.5,0-1.2,0.4-1.2,1c-0.1,1.3,0,2.7,0,4.1C64.3,99,65.1,99,65.9,99z M63.5,101.1
			c0,1.3,0,2.6,0,3.9c0,0.6,0.6,1.1,1.2,1.1c0.6,0,1.2-0.4,1.2-1c0-1.3,0-2.6,0-4C65.1,101.1,64.3,101.1,63.5,101.1z M46.7,99
			c0-1.4,0-2.7,0-4c0-0.6-0.5-1-1.1-1.1c-0.5,0-1.2,0.4-1.2,0.9c0,1.4,0,2.7,0,4.1C45.2,99,45.9,99,46.7,99z M44.3,101.1
			c0,1.3,0,2.5,0,3.8c0,0.7,0.5,1.2,1.1,1.2c0.7,0,1.2-0.5,1.2-1.2c0-1,0-2.1,0-3.1c0-0.2,0-0.5,0-0.7
			C45.9,101.1,45.1,101.1,44.3,101.1z"/>
		<path class="st1" d="M87.7,106.5c-1.5,0-2.9,0-4.4,0c-0.4,0-0.6-0.1-0.6-0.6c0-1.4,0-2.7,0-4.1c0-0.4,0.1-0.6,0.6-0.6
			c2.9,0,5.8,0,8.8,0c1.5,0,2.4,0.8,2.7,2.2c0.2,1-0.4,2.3-1.5,2.7c-0.4,0.2-0.9,0.2-1.4,0.2C90.4,106.5,89,106.5,87.7,106.5z"/>
		<path class="st1" d="M82.7,98.2c0-1.7,0-3.4,0-5.1c0.2,0,0.3-0.1,0.4-0.1c2.7,0,5.4,0,8.1,0c1.6,0,2.7,1.1,2.8,2.5
			c0.1,1.5-0.9,2.7-2.4,2.7c-2.9,0.1-5.9,0-8.8,0C82.9,98.2,82.8,98.2,82.7,98.2z"/>
		<path class="st1" d="M104.5,99.7c-0.1-2.7,1.7-5.2,3.9-6c2.4-0.9,5.1-0.4,6.9,1.5c1.7,1.8,2.1,4,1.5,6.4c-0.6,2.4-2.2,3.9-4.6,4.5
			c-3.2,0.7-6.6-1.4-7.3-4.6C104.6,100.9,104.6,100.3,104.5,99.7z"/>
		<path class="st1" d="M159.6,91.8c0,0.9-0.5,1.5-1.3,1.5c-0.8,0-1.4-0.6-1.4-1.5c0-0.8,0.6-1.5,1.4-1.5
			C158.9,90.3,159.6,91,159.6,91.8z M157.6,92.8c0.1,0,0.1,0,0.2,0c0.1-0.3,0.1-0.5,0.2-1c0.4,0.4,0.6,0.7,0.9,1
			c0,0,0.1-0.1,0.1-0.1c-0.1-0.2-0.3-0.5-0.4-0.7c0.2-0.3,0.4-0.8,0.4-0.9c-0.4-0.2-0.9-0.3-1.4-0.5
			C157.6,91.5,157.6,92.1,157.6,92.8z"/>
		<path d="M56.3,99c-0.8,0-1.6,0-2.4,0c0-0.2,0-0.4,0-0.6c0-2.4,0-4.8,0-7.3c0-0.4,0.1-0.8,0.3-1.1c0.3-0.4,0.8-0.5,1.3-0.4
			c0.5,0.2,0.8,0.5,0.8,1.1c0,1.2,0,2.4,0,3.6C56.3,95.9,56.3,97.5,56.3,99z"/>
		<path d="M54,101.1c0.8,0,1.5,0,2.3,0c0,0.2,0,0.4,0,0.7c0,2.4,0,4.9,0,7.3c0,0.8-0.4,1.3-1.1,1.4c-0.7,0-1.3-0.5-1.3-1.3
			c0-2.6,0-5.2,0-7.8C53.9,101.3,53.9,101.2,54,101.1z"/>
		<path d="M61.1,99c-0.8,0-1.6,0-2.3,0c0-0.1-0.1-0.1-0.1-0.2c0-2.1,0-4.1,0-6.2c0-0.9,0.5-1.3,1.3-1.3c0.7,0,1.2,0.5,1.2,1.4
			C61.1,94.8,61.1,96.9,61.1,99z"/>
		<path d="M58.7,101.1c0.8,0,1.6,0,2.4,0c0,1,0,1.9,0,2.8c0,1.2,0,2.3,0,3.5c0,0.8-0.5,1.3-1.2,1.3c-0.7,0-1.2-0.4-1.2-1.1
			C58.7,105.5,58.7,103.3,58.7,101.1z"/>
		<path d="M49.1,99c0-2.2,0-4.4,0-6.6c0-0.6,0.5-1.1,1.2-1.1c0.6,0,1.2,0.4,1.2,1.1c0,2.2,0,4.4,0,6.6C50.7,99,50,99,49.1,99z"/>
		<path d="M49.2,101.1c0.8,0,1.5,0,2.3,0c0,0.9,0,1.9,0,2.8c0,1.2,0,2.4,0,3.6c0,0.8-0.5,1.3-1.1,1.3c-0.7,0-1.2-0.5-1.2-1.3
			c0-2,0-4,0-6C49.1,101.3,49.1,101.2,49.2,101.1z"/>
		<path d="M65.9,99c-0.8,0-1.6,0-2.4,0c0-1.4,0-2.7,0-4.1c0-0.6,0.7-1,1.2-1c0.6,0,1.1,0.5,1.1,1.1C65.9,96.4,65.9,97.7,65.9,99z"/>
		<path d="M63.5,101.1c0.8,0,1.6,0,2.4,0c0,1.3,0,2.6,0,4c0,0.6-0.6,1.1-1.2,1c-0.6,0-1.1-0.4-1.2-1.1
			C63.5,103.7,63.5,102.4,63.5,101.1z"/>
		<path d="M46.7,99c-0.8,0-1.5,0-2.3,0c0-1.4,0-2.8,0-4.1c0-0.5,0.7-0.9,1.2-0.9c0.6,0,1.1,0.5,1.1,1.1C46.7,96.4,46.7,97.7,46.7,99
			z"/>
		<path d="M44.3,101.1c0.8,0,1.5,0,2.3,0c0,0.2,0,0.4,0,0.7c0,1,0,2.1,0,3.1c0,0.7-0.6,1.2-1.2,1.2c-0.7,0-1.1-0.5-1.1-1.2
			C44.3,103.6,44.3,102.4,44.3,101.1z"/>
		<path d="M157.6,92.8c0-0.6,0-1.3,0-2.1c0.5,0.2,1,0.2,1.4,0.5c0.1,0-0.1,0.6-0.4,0.9c0.1,0.2,0.3,0.5,0.4,0.7c0,0-0.1,0.1-0.1,0.1
			c-0.3-0.3-0.5-0.6-0.9-1c-0.1,0.4-0.1,0.7-0.2,1C157.7,92.8,157.6,92.8,157.6,92.8z M158,91c-0.1,0.1-0.2,0.2-0.3,0.3
			c0.1,0.2,0.2,0.4,0.4,0.4c0.2,0,0.3-0.2,0.5-0.3C158.4,91.2,158.2,91.1,158,91z"/>
		<path class="st1" d="M158,91c0.2,0.1,0.4,0.3,0.6,0.4c-0.2,0.1-0.4,0.3-0.5,0.3c-0.1,0-0.2-0.3-0.4-0.4
			C157.8,91.1,157.9,91,158,91z"/>
	</g>
</g>
</svg>
