<?xml version="1.0" encoding="utf-8"?>
<!-- Generator: Adobe Illustrator 24.1.2, SVG Export Plug-In . SVG Version: 6.00 Build 0)  -->
<svg version="1.1" id="Layer_1" xmlns="http://www.w3.org/2000/svg" xmlns:xlink="http://www.w3.org/1999/xlink" x="0px" y="0px"
	 viewBox="0 0 200 200" style="enable-background:new 0 0 200 200;" xml:space="preserve">
<style type="text/css">
	.st0{fill-rule:evenodd;clip-rule:evenodd;fill:#FFFFFF;}
	.st1{fill-rule:evenodd;clip-rule:evenodd;}
	.st2{fill-rule:evenodd;clip-rule:evenodd;fill:#CC2229;stroke:#CC2229;stroke-width:0.9209;stroke-miterlimit:33.89;}
</style>
<g>
	<path class="st0" d="M30,30h140v140H30V30z"/>
	<path class="st1" d="M144.4,78.5c-2.2-0.4-3.2-2.2-2.8-4.8c0.5-2.8,2.9-6.3,6.2-7.3c1-0.3,1.9-0.1,2.6,0.5c0.7,0.7,1.1,1.8,1.1,3
		c0,0.5-0.1,1.2-0.2,1.4c-0.3,0.6-0.4,0.6-0.3,1.2c0,0.6-0.6,2.1-1.8,3.5C147.7,77.9,145.6,78.7,144.4,78.5L144.4,78.5z"/>
	<path class="st2" d="M131.7,119.5c0.4-1,0.9-1.9,0.9-2.5c0-0.4,0.5-1.7,1-3.2c0.6-1.8,1.9-5.7,2.4-8.2c0.1-0.7,1.1-4.6,1-5.7
		c-0.1-2.4-1-3-4.5-3.7c-4.4-0.8-4.9-1.6-6.9-2c-5-1.2-11.2-2.7-13.7-4.7c-0.4-0.4-0.7-0.7-0.7-0.9c0,0,0-0.1,0-0.1
		c0.1-0.3,0.5-0.6,2-0.8c3.5-0.5,6.9-0.8,10.2-1.2c6.2-0.7,12-1.3,17.1-2.4c7.4-1.6,14.2-4.2,22.1-8.6c0.8-0.5,1.6-0.6,1.9-0.3
		c0.4,0.4,0.2,1.4-0.2,2.4c-2.2,5.6-10.8,18.9-13.2,23c-2.1,3.6-5.9,8.8-9.1,13c-3.3,4.3-10.9,12.7-12.2,12.2
		c-0.1,0,0.1-0.3,0.3-0.5c0.2-0.3,0.6-0.7,0.7-1.2c0.1-0.5,0.8-1.4,1.3-2.1c0.5-0.6,0.8-1.1,0.9-1.5c0-0.2-0.1-0.4-0.2-0.4
		c-0.3-0.1-0.5,0.2-1,0.8c-0.3,0.3-0.8,0.9-0.9,0.8C130.9,121.3,131.4,120.1,131.7,119.5L131.7,119.5z"/>
	<path class="st1" d="M35.2,114.8c-0.2,1.7-0.2,3.1,0.2,4.1c0.7,1.9,2.7,2.9,5.7,2.9c0.6,0,1.1,0,1.7-0.1l1-0.1
		c1.5-0.2,3-0.5,4.5,0.2c0,0,3.7-13.8,3.8-14.2h-7.4c1.1,0.5,2.2,1.2,2,2.4c0,0.2-0.1,0.5-0.1,0.7c-0.2,0.9-1.6,5.8-1.7,6
		c-0.2,0.7-0.4,2.3-2.5,2c-1.6-0.2-1.8-0.9-1.8-2.3c0-0.4,0.1-1,0.2-1.7v0c0.3-1.4,0.7-3.4,1.5-6c1-3.6,1.9-6.1,2.5-7.5
		c0.1-0.2,0.2-0.4,0.2-0.6c0,0,0.5-1.6,2.1-1.5l0.4,0c1,0,1.7,0.8,1.5,1.9l-0.2,1.3h4.8c0.2-0.7,0.4-1.5,0.5-2.1
		c0.1-1.2-0.3-1.9-0.9-2.6c-0.8-1.1-2.7-1.7-4.9-1.7c-2.8,0-5.1,1-6.9,3c-1.8,2-3.4,5.4-4.6,9.9C35.9,111.2,35.4,113.2,35.2,114.8
		L35.2,114.8z M79.5,121.5h-5c0.3-0.9,3.4-12.8,3.7-13.9c0.2-0.8,0.1-1.7-1.4-1.7c-0.5,0-1.2,0-1.9,0.2l-4.1,15.4h-5l5-18.5
		c1.4,0.7,2.9,0.6,4.5,0.3c1.2-0.2,2.6-0.4,4.5-0.3c1.5,0.1,2.7,0.4,3.2,1.2c0.5,0.7,0.6,1.8,0.2,3.2L79.5,121.5L79.5,121.5z
		 M92.7,103.1h-5l-4.9,18.3h5L92.7,103.1L92.7,103.1z M109.7,103.1h-5l-4.2,15.5c-0.7,0.2-1.4,0.2-1.9,0.3c-1.5,0-1.6-0.9-1.4-1.7
		c0.1-0.5,3.3-12.6,3.7-14h-5c0,0.1-3.8,14.3-3.8,14.3c-0.4,1.3-0.3,2.4,0.2,3.2c0.6,0.8,1.7,1.1,3.3,1.2c1.9,0.1,3.3-0.2,4.5-0.3
		c1.7-0.3,3.1-0.3,4.5,0.3L109.7,103.1L109.7,103.1z M121.8,104.1c-0.7-0.8-2-1.2-3.9-1.2c-1.8,0-3.2,0.3-4.5,1.1
		c-1.2,0.8-2.2,2-2.6,3.4c-0.3,1.1-0.4,2-0.2,3.1c0.2,0.8,0.9,2.1,2,3.2c0.4,0.4,0.8,0.8,1.1,1.1c0.4,0.4,0.8,0.8,1,1.1
		c0.4,0.5,0.6,1.1,0.4,1.5c-0.1,0.5-0.4,0.9-0.7,1.1c-0.5,0.3-1.1,0.5-1.6,0.5c-0.4,0-0.9-0.2-1.2-0.6c-0.2-0.3-0.2-0.5-0.2-0.8
		c0-0.2,0-0.3,0.1-0.5h-3.9c-0.1,0.3-0.1,0.7-0.2,1.1c0,1,0.3,1.7,0.8,2.3c0.8,0.8,2,1.2,4,1.2c1.9,0,3.6-0.4,4.9-1.3
		c1.4-0.9,2.1-1.9,2.5-3.4c0.2-0.8,0.3-1.6,0.1-2.3c0-0.2-0.1-0.4-0.2-0.6c-0.3-0.6-0.8-1.7-2.1-2.9c-1.4-1.3-1.9-2.1-2.2-2.6
		c-0.3-0.5-0.3-1.1-0.1-1.6c0.1-0.5,0.4-0.8,0.7-1.1c0.4-0.3,0.8-0.4,1.3-0.4c0.5,0,0.9,0.2,1.1,0.6c0.1,0.2,0.2,0.4,0.2,0.8
		c0,0.1,0,0.1-0.1,0.3h4c0.1-0.3,0.1-0.6,0.1-1C122.5,105.4,122.3,104.7,121.8,104.1z M92.1,95.9c-1.4,0-3,1.2-3.4,2.7
		c-0.4,1.5,0.5,2.7,2,2.7c1.5,0,3-1.2,3.3-2.7C94.5,97.1,93.6,95.9,92.1,95.9L92.1,95.9z M66.5,105.3c-0.6-1.2-1.9-2.4-3.9-2.4
		c-2.3,0-4.3,0.8-6,2.4c-1.6,1.6-2.9,4-3.8,7.1c-0.2,0.8-0.4,1.6-0.5,2.4c-0.3,1.9-0.1,3.4,0.4,4.5c0.5,1.3,1.8,2.5,4.7,2.5
		c2,0,3.1-0.3,4.3-1.1c1-0.6,2.1-2,2.6-3.4h-3.7c-0.2,0.6-0.6,1.2-0.9,1.5c-0.3,0.3-0.7,0.4-1.1,0.4c-1.3,0-1.5-0.9-1.6-1.7
		c0-0.5,0.1-1.5,0.4-2.7c0.1-0.7,0.3-1.5,0.5-2.3h7.8c0.1-0.2,0.6-2,0.6-2C66.8,108.4,67,106.5,66.5,105.3L66.5,105.3z M62.6,110.1
		h-4c0.3-1.3,0.9-2.9,1.4-3.5c0.4-0.6,1.1-1,1.8-1c0.8,0,1.1,0.5,1.1,1.1C63,107.4,62.9,108.7,62.6,110.1L62.6,110.1z"/>
</g>
</svg>
