<svg id="Layer_1" data-name="Layer 1" xmlns="http://www.w3.org/2000/svg" viewBox="0 0 200 200"><path d="M108.6,102.4h0v-.1h-.1l.1.1m.1,0v-.2h.1l-.1.2h0l.1-.2h.1v.2h0v-.1h0v.1h-.2v-.1h0v.1h0" style="fill:#66b933"/><path d="M28.24,96.39a3.27,3.27,0,0,1,1.42,1.06,2.65,2.65,0,0,1,.58,1.24,14.37,14.37,0,0,1,.1,2.07v6.33H27.29v-6.54a2.82,2.82,0,0,0-.31-1.4,1.61,1.61,0,0,0-1.55-.75,2.22,2.22,0,0,0-1.8.74,3.28,3.28,0,0,0-.61,2.13v5.82H20V92.54h3v5.2a3.58,3.58,0,0,1,1.5-1.32,4.44,4.44,0,0,1,1.8-.38A5.17,5.17,0,0,1,28.24,96.39Zm8.59,4.11a5.12,5.12,0,0,0,1.2-.25.86.86,0,0,0,.65-.81,1,1,0,0,0-.5-.92,3.3,3.3,0,0,0-1.46-.25,2,2,0,0,0-1.53.49,2.06,2.06,0,0,0-.43,1h-2.9a3.83,3.83,0,0,1,.85-2.3c.79-.94,2.17-1.41,4.11-1.41a7.91,7.91,0,0,1,3.38.69,2.62,2.62,0,0,1,1.47,2.64v5c0,.35,0,.76,0,1.26a1.52,1.52,0,0,0,.17.75,1,1,0,0,0,.44.32v.41H39.06a3.31,3.31,0,0,1-.19-.61,4.48,4.48,0,0,1-.08-.64,6.06,6.06,0,0,1-1.45,1.09,4.6,4.6,0,0,1-2.21.53,4,4,0,0,1-2.61-.85,2.93,2.93,0,0,1-1-2.39,3.06,3.06,0,0,1,1.65-2.9,7.53,7.53,0,0,1,2.65-.7l1-.12Zm1.84,1.32a3.19,3.19,0,0,1-.59.28,4.43,4.43,0,0,1-.8.19l-.69.12a4.53,4.53,0,0,0-1.38.4,1.3,1.3,0,0,0-.7,1.21,1.27,1.27,0,0,0,.43,1.06,1.75,1.75,0,0,0,1.06.32,3.28,3.28,0,0,0,1.81-.54,2.27,2.27,0,0,0,.86-2v-1.07Zm12-5.77.26,0v2.86l-.87,0A2.54,2.54,0,0,0,47.66,100a4,4,0,0,0-.35,1.92v5.15h-3V96.31h2.87v1.88a6,6,0,0,1,1.22-1.48A3.45,3.45,0,0,1,50.57,96Zm16.38.27a3.37,3.37,0,0,1,1.35,1,3,3,0,0,1,.66,1.39,9.08,9.08,0,0,1,.11,1.6l0,6.81h-3.1V100.2a2.13,2.13,0,0,0-.22-1,1.55,1.55,0,0,0-1.49-.76,1.77,1.77,0,0,0-1.75,1,2.89,2.89,0,0,0-.24,1.24v6.44h-3v-6.44a3.44,3.44,0,0,0-.21-1.4,1.52,1.52,0,0,0-1.5-.78,1.81,1.81,0,0,0-1.74.78,2.76,2.76,0,0,0-.25,1.33v6.51h-3V96.31h2.88v1.56a4.59,4.59,0,0,1,1.06-1.19A4.41,4.41,0,0,1,61,96.59a3.23,3.23,0,0,1,1,1.3,3.73,3.73,0,0,1,1.48-1.4,4.73,4.73,0,0,1,2.08-.44,4.35,4.35,0,0,1,1.52.27Zm8,4.18a5.12,5.12,0,0,0,1.2-.25.85.85,0,0,0,.65-.81,1,1,0,0,0-.5-.92A3.3,3.3,0,0,0,75,98.27a2,2,0,0,0-1.53.49,2,2,0,0,0-.42,1H70.16a3.89,3.89,0,0,1,.85-2.3c.8-.94,2.17-1.41,4.12-1.41a7.87,7.87,0,0,1,3.37.69A2.62,2.62,0,0,1,80,99.37v5c0,.35,0,.76,0,1.26a1.65,1.65,0,0,0,.17.75,1.07,1.07,0,0,0,.44.32v.41H77.36a3.31,3.31,0,0,1-.19-.61c0-.21-.06-.42-.08-.64a6.06,6.06,0,0,1-1.45,1.09,4.6,4.6,0,0,1-2.21.53,4,4,0,0,1-2.6-.85,2.9,2.9,0,0,1-1-2.39,3.06,3.06,0,0,1,1.65-2.9,7.53,7.53,0,0,1,2.65-.7l1-.12ZM77,101.82a3.1,3.1,0,0,1-.58.28,4.34,4.34,0,0,1-.81.19l-.68.12a4.44,4.44,0,0,0-1.38.4,1.28,1.28,0,0,0-.7,1.21,1.24,1.24,0,0,0,.43,1.06,1.74,1.74,0,0,0,1,.32,3.21,3.21,0,0,0,1.81-.54,2.24,2.24,0,0,0,.86-2v-1.07Zm14.88-4.9A3.48,3.48,0,0,1,93,99.83v7.26H89.85v-6.56a2.84,2.84,0,0,0-.24-1.3A1.67,1.67,0,0,0,88,98.4a2,2,0,0,0-2,1.21,4.11,4.11,0,0,0-.28,1.65v5.82h-3V96.31h2.91V97.9a4.86,4.86,0,0,1,1.09-1.2A3.89,3.89,0,0,1,89,96a4.59,4.59,0,0,1,2.89.88ZM107,92.54h2.94v7.87l3.71-4h3.71l-4.06,4,4.22,6.7h-3.61l-2.73-4.61-1.24,1.22v3.39H107V92.54Zm16.55,8a5.12,5.12,0,0,0,1.2-.25.85.85,0,0,0,.64-.81.94.94,0,0,0-.49-.92,3.3,3.3,0,0,0-1.46-.25,2,2,0,0,0-1.53.49,1.89,1.89,0,0,0-.43,1h-2.91a4,4,0,0,1,.85-2.3c.8-.94,2.17-1.41,4.12-1.41a7.83,7.83,0,0,1,3.37.69,2.61,2.61,0,0,1,1.48,2.64v5c0,.35,0,.76,0,1.26a1.65,1.65,0,0,0,.17.75,1.07,1.07,0,0,0,.44.32v.41h-3.24a2.35,2.35,0,0,1-.19-.61,5.19,5.19,0,0,1-.09-.64,6.06,6.06,0,0,1-1.45,1.09,4.6,4.6,0,0,1-2.21.53,4,4,0,0,1-2.6-.85,2.93,2.93,0,0,1-1-2.39,3.06,3.06,0,0,1,1.65-2.9,7.59,7.59,0,0,1,2.66-.7l1-.12Zm1.83,1.32a3.1,3.1,0,0,1-.58.28,4.9,4.9,0,0,1-.81.19l-.68.12a4.53,4.53,0,0,0-1.38.4,1.28,1.28,0,0,0-.7,1.21,1.24,1.24,0,0,0,.43,1.06,1.75,1.75,0,0,0,1.06.32,3.22,3.22,0,0,0,1.8-.54,2.22,2.22,0,0,0,.86-2v-1.07ZM137,96.05l.26,0v2.86l-.87,0A2.57,2.57,0,0,0,133.9,100a4.13,4.13,0,0,0-.35,1.92v5.15h-3V96.31h2.87v1.88a6,6,0,0,1,1.21-1.48,3.46,3.46,0,0,1,2.19-.67Zm7.23.42a3.69,3.69,0,0,1,1.32,1.19V92.54h3v14.55h-2.87v-1.46a4.1,4.1,0,0,1-1.47,1.39,4.68,4.68,0,0,1-5.45-1.1,5.68,5.68,0,0,1-1.37-3.93,6.52,6.52,0,0,1,1.35-4.36A4.51,4.51,0,0,1,142.33,96a4,4,0,0,1,1.86.43Zm.76,7.73a3.83,3.83,0,0,0,.66-2.33A3.42,3.42,0,0,0,144.53,99,2.41,2.41,0,0,0,143,98.5a2.14,2.14,0,0,0-1.93,1,4.86,4.86,0,0,0,0,4.75,2.16,2.16,0,0,0,1.9.9,2.26,2.26,0,0,0,1.94-.9Zm15,1.57a6.61,6.61,0,0,1-8.83,0,6,6,0,0,1-1.45-4,6,6,0,0,1,1.45-4,6.58,6.58,0,0,1,8.83,0,6,6,0,0,1,1.46,4A6,6,0,0,1,160,105.77Zm-2.37-1.55a4,4,0,0,0,.71-2.51,3.9,3.9,0,0,0-.71-2.5,2.79,2.79,0,0,0-4.07,0,3.84,3.84,0,0,0-.72,2.5,3.89,3.89,0,0,0,.72,2.51,2.79,2.79,0,0,0,4.07,0Zm15.25-7.3A3.51,3.51,0,0,1,174,99.83v7.26h-3.12v-6.56a2.84,2.84,0,0,0-.24-1.3A1.68,1.68,0,0,0,169,98.4a2,2,0,0,0-2,1.21,4.1,4.1,0,0,0-.29,1.65v5.82h-3V96.31h2.91V97.9a4.86,4.86,0,0,1,1.08-1.2,3.91,3.91,0,0,1,2.33-.66A4.62,4.62,0,0,1,172.84,96.92Zm6.48-.13a2.32,2.32,0,0,1-1.6.6,2.25,2.25,0,0,1-1.61-.62,2.06,2.06,0,0,1,0-3.07,2.32,2.32,0,0,1,1.56-.58,2.25,2.25,0,0,1,1.61.63,2,2,0,0,1,.67,1.51A2,2,0,0,1,179.32,96.79ZM176.39,94a1.71,1.71,0,0,0,0,2.5,1.95,1.95,0,0,0,2.65,0,1.71,1.71,0,0,0,.54-1.26,1.67,1.67,0,0,0-.54-1.24,1.79,1.79,0,0,0-1.33-.53A1.84,1.84,0,0,0,176.39,94Zm.33,2.42V94.07h1.22a1.19,1.19,0,0,1,.5.12.59.59,0,0,1,.34.57.51.51,0,0,1-.18.43.84.84,0,0,1-.44.16.88.88,0,0,1,.36.13.63.63,0,0,1,.22.53v.21a.15.15,0,0,0,0,.07s0,0,0,.07l0,.07h-.63a1.86,1.86,0,0,1,0-.33.9.9,0,0,0,0-.28.32.32,0,0,0-.18-.18.91.91,0,0,0-.23,0h-.28v.83Zm1.21-1.9a1,1,0,0,0-.38-.05h-.16v.69h.25a.6.6,0,0,0,.36-.09.31.31,0,0,0,.13-.28A.28.28,0,0,0,177.93,94.54Zm-73.18-2h-.61l-9,14.55h.62Z" style="fill:#757678;fill-rule:evenodd"/></svg>