<?xml version="1.0" encoding="utf-8"?>
<!-- Generator: Adobe Illustrator 24.1.2, SVG Export Plug-In . SVG Version: 6.00 Build 0)  -->
<svg version="1.1" id="Layer_1" xmlns="http://www.w3.org/2000/svg" xmlns:xlink="http://www.w3.org/1999/xlink" x="0px" y="0px"
	 viewBox="0 0 200 200" style="enable-background:new 0 0 200 200;" xml:space="preserve">
<style type="text/css">
	.st0{fill:#66B933;}
</style>
<path class="st0" d="M134.2,161.1h0.4v-1.1h0.4v-0.3h-1.3v0.3h0.4V161.1 M135.1,161v-1.3h0.6l0.2,0.9l0,0l0.2-0.9h0.6v1.3h-0.3v-1.1
	h0l-0.3,1.1h-0.3l-0.3-1.1v0v1.1L135.1,161"/>
<path d="M37.5,107.9V81.6h4.6v26.3L37.5,107.9L37.5,107.9L37.5,107.9z M53.9,88.8c-5.9,0-10,4.6-10,9.8c0,5.8,4.5,9.8,10.1,9.8
	c5.3,0,9.9-3.9,9.9-9.8C63.9,93.6,60.1,88.8,53.9,88.8L53.9,88.8z M53.9,93.3c3.1,0,5.4,2.4,5.4,5.3c0,3.1-2.5,5.3-5.3,5.3
	c-3.3,0-5.4-2.6-5.4-5.3C48.6,95.6,50.9,93.3,53.9,93.3L53.9,93.3z M75.5,88.8c-5.9,0-10,4.6-10,9.8c0,5.8,4.5,9.8,10.1,9.8
	c5.3,0,9.9-3.9,9.9-9.8c0-3.5-1.5-5-1.5-5l1.3-0.4v-3.7h-6.6C78.7,89.3,77.3,88.8,75.5,88.8z M75.5,93.3c3.1,0,5.4,2.4,5.4,5.3
	c0,3.1-2.5,5.3-5.3,5.3c-3.3,0-5.4-2.6-5.4-5.3C70.2,95.6,72.5,93.3,75.5,93.3L75.5,93.3z M80.8,109.2c0,3.1-2.5,5.4-5.3,5.4
	c-3.3,0-5.4-2.6-5.4-5.4h-4.7c0,5.8,4.5,9.8,10.1,9.8c5.3,0,9.9-3.9,9.9-9.8H80.8z M87.4,107.9V89.3H92v18.5H87.4z M96.5,107.9V93.5
	H94v-4.1h2.5v-5.7h4.6v5.7h2.5v4.1h-2.5v14.4H96.5z M92.7,84.1c0,1.7-1.4,3.1-3.1,3.1c-1.7,0-3.1-1.4-3.1-3.1c0-1.7,1.4-3.1,3.1-3.1
	C91.3,81,92.7,82.4,92.7,84.1z M114,88.8c-5.9,0-9.8,4.6-9.8,9.9c0,5.6,3.8,9.7,9.9,9.7c5.6,0,8.4-3.5,8.4-3.5l-3.1-3.1
	c0,0-2.3,2.5-5.2,2.5c-2.4,0-4.4-1.4-5.1-3.8h14.4v-1.3C123.5,94.1,120.5,88.8,114,88.8L114,88.8z M113.8,92.9
	c2.1,0,4.3,1.1,4.8,3.9H109C109.3,94.8,111,92.9,113.8,92.9z M135,108.4c-6,0-10-4.5-10-9.9c0-5.5,4.6-9.7,10-9.7
	c5.2,0,7.9,3.7,7.9,3.7l-3.2,3.2c0,0-1.9-2.4-4.7-2.4c-3.2,0-5.3,2.4-5.3,5.3c0,3,2.3,5.4,5.3,5.4c2.9,0,4.7-2.4,4.7-2.4l3.3,3.2
	C143,104.7,140.3,108.4,135,108.4L135,108.4L135,108.4L135,108.4z M144.6,107.9V81.5h4.6v9.7c0,0,1.8-2.4,5.6-2.4
	c4.8,0,7.6,3.6,7.6,8.2v10.9h-4.6V97.7c0-3.1-1.9-4.4-4.1-4.4c-2.4,0-4.6,1.4-4.6,4.6v10H144.6L144.6,107.9z"/>
</svg>
