<?xml version="1.0" encoding="utf-8"?>
<!-- Generator: Adobe Illustrator 24.1.2, SVG Export Plug-In . SVG Version: 6.00 Build 0)  -->
<svg version="1.1" id="Layer_1" xmlns="http://www.w3.org/2000/svg" xmlns:xlink="http://www.w3.org/1999/xlink" x="0px" y="0px"
	 viewBox="0 0 200 200" style="enable-background:new 0 0 200 200;" xml:space="preserve">
<style type="text/css">
	.st0{fill:#66B933;}
</style>
<path class="st0" d="M161.56,39.38c0.14-0.76-0.16-1.56-0.81-2.04c-0.84-0.61-2.01-0.49-2.71,0.28l-1.1,1.2l-1.73,0.74
	c-0.61-0.19-1.3-0.21-2.01-0.03c-0.41,0.1-0.53,0.08-0.89,0.01c-0.8-0.16-1.63-0.25-2.96,0.17c-0.47-0.03-1.02,0.04-1.88,0.32
	c-1.08,0.36-1.76,1.21-2.25,1.83l-0.16,0.21c-3.1,0.8-4.32,2.54-4.8,3.89c-0.09,0.26-0.16,0.53-0.21,0.79
	c-3.26-2.47-7.75-2.7-11.56-0.47c-4.37,2.56-6.33,7.4-4.98,12.34c2.17,7.98,9.74,15.49,14.26,19.99l1.46,1.46
	c2.36,2.4,5.4,7.25,4.8,10.48c-0.15,0.81-0.58,1.98-2.55,2.87c-1.01,0.45-1.97,0.74-2.9,0.85c1.67-4.68,0.86-9.71-2.31-13.01
	c-4.52-4.7-8.8-3.52-10.43-2.25c-0.69,0.54-0.96,1.46-0.68,2.28c0.29,0.83,1.07,1.38,1.94,1.38c2.17,0,4.61,1.61,5.67,3.76
	c0.89,1.81,0.72,3.77-0.49,5.71c-0.92-0.75-1.71-1.58-2.39-2.29c-0.28-0.29-0.54-0.57-0.77-0.79l-0.17-0.19
	c-3.25-3.66-6.55-5.79-9.87-6.38c-0.42-5.86-4.55-11.78-10.82-15.22c-0.51-0.28-1.04-0.53-1.58-0.75
	c-1.17-6.12-4.91-10.22-10.88-11.9c-8.71-2.45-15.63,1.44-18.98,10.68c-1.14,3.15-3.57,13.9-5.57,22.91l-0.38,1.69
	c-0.27,1.19-1.65,3.33-3.13,3.84c-0.41,0.14-0.92,0.21-1.63-0.37c-1.45-1.18-0.59-4.59-0.13-6.43c0.09-0.36,0.17-0.66,0.23-0.94
	c0.38-1.75-0.2-3.69-1.5-5.08c-1.27-1.36-3.03-1.98-4.83-1.71c-3.81,0.57-5.02,3.65-5.49,5.04c-0.37-0.7-0.88-1.63-1.84-2.18
	c-0.78-0.45-1.3-0.62-1.77-0.69c-1.23-0.69-2.06-0.76-2.88-0.76c-0.37,0-0.49,0-0.87-0.19c-0.76-0.36-1.54-0.47-2.27-0.33l-1.41-0.9
	l-0.89-1.36c-0.58-0.88-1.73-1.18-2.66-0.69c-0.71,0.37-1.12,1.1-1.1,1.87c-0.71,0.31-1.2,1.01-1.22,1.82
	c-0.03,1.04,0.73,1.94,1.76,2.08l1.61,0.23l1.39,0.88c0.18,0.7,0.59,1.36,1.23,1.9c0.32,0.27,0.37,0.39,0.53,0.72
	c0.34,0.74,0.74,1.48,1.87,2.31c0.25,0.39,0.62,0.8,1.35,1.33c0.92,0.67,2.01,0.72,2.8,0.76c0.08,0.01,0.17,0.01,0.27,0.01
	c2.45,2.06,4.58,2.04,5.96,1.63c0.27-0.08,0.52-0.18,0.76-0.29c-0.11,4.09,2.32,7.87,6.35,9.67c4.62,2.07,9.7,0.83,12.93-3.14
	c5.22-6.41,6.92-16.94,7.94-23.23l0.34-2.05c0.58-3.31,2.74-8.61,5.73-10c0.74-0.35,1.95-0.68,3.82,0.4
	c0.96,0.55,1.74,1.17,2.37,1.86c-4.78,1.37-8.4,4.96-9.23,9.46c-1.19,6.41,2.25,9.2,4.24,9.78c0.84,0.25,1.74-0.07,2.25-0.78
	c0.51-0.71,0.5-1.67-0.01-2.38c-1.27-1.77-1.38-4.69-0.25-6.81c0.95-1.78,2.64-2.78,4.93-2.93c-0.07,1.19-0.28,2.31-0.46,3.28
	c-0.08,0.4-0.15,0.77-0.2,1.09c-0.01,0.03-0.03,0.15-0.06,0.24c-0.99,4.34-0.91,7.99,0.21,10.91c-4.81,2.97-8.22,9.04-8.71,15.82
	c-0.04,0.58-0.05,1.17-0.03,1.75c-5.07,3.61-7.24,8.72-6.28,14.85c1.4,8.94,7.82,13.61,17.61,12.8c3.34-0.27,14.12-2.54,23.14-4.48
	l1.69-0.36c1.2-0.25,3.72,0.12,4.8,1.25c0.3,0.32,0.58,0.75,0.34,1.64c-0.47,1.81-3.93,2.45-5.79,2.8
	c-0.36,0.07-0.67,0.12-0.95,0.18c-1.75,0.39-3.28,1.72-3.99,3.48c-0.7,1.72-0.54,3.58,0.46,5.1c2.11,3.22,5.41,3.04,6.87,2.89
	c-0.49,0.63-1.11,1.48-1.21,2.58c-0.08,0.89-0.02,1.44,0.11,1.89c-0.12,1.4,0.17,2.19,0.5,2.93c0.15,0.34,0.2,0.45,0.2,0.87
	c-0.01,0.87,0.23,1.64,0.69,2.26l-0.3,2.11l-0.87,1.37c-0.57,0.89-0.37,2.06,0.46,2.71c0.61,0.49,1.45,0.58,2.15,0.24
	c0.58,0.52,1.41,0.68,2.16,0.37c0.96-0.4,1.47-1.46,1.18-2.46l-0.45-1.56l0.32-2.24c0.53-0.45,0.93-1.08,1.16-1.85
	c0.11-0.4,0.19-0.5,0.44-0.78c0.53-0.61,1.03-1.29,1.32-2.66c0.26-0.39,0.47-0.9,0.65-1.78c0.23-1.12-0.18-2.12-0.48-2.86l-0.1-0.25
	c0.85-3.08-0.06-5.01-1-6.1c-0.18-0.21-0.38-0.39-0.58-0.57c3.76-1.6,6.19-5.39,6.15-9.8c-0.05-5.06-3.29-9.16-8.24-10.45
	c-8.01-2.07-18.29,0.76-24.43,2.46l-2,0.54c-3.26,0.85-8.97,1.09-11.48-1.04c-0.62-0.53-1.43-1.48-1.22-3.64
	c0.1-1.1,0.34-2.07,0.7-2.93c3.24,3.77,8.01,5.57,12.44,4.45c6.32-1.59,7.43-5.88,7.13-7.93c-0.12-0.87-0.79-1.56-1.64-1.72
	c-0.86-0.16-1.73,0.24-2.16,1c-1.08,1.89-3.69,3.2-6.08,3.06c-2.01-0.12-3.63-1.24-4.72-3.26c1.11-0.43,2.22-0.7,3.17-0.94
	c0.39-0.1,0.76-0.19,1.07-0.28c0.08-0.02,0.16-0.03,0.25-0.05c4.95-1.04,8.52-2.94,10.64-5.65c4.95,2.51,11.63,2.37,17.65-0.51
	c0.52-0.25,1.03-0.54,1.53-0.85c5.66,2.61,11.17,1.96,16.01-1.92c7.06-5.65,7.93-13.54,2.37-21.64c-1.9-2.77-9.22-11-15.38-17.86
	l-1.15-1.29c-0.81-0.91-1.75-3.29-1.3-4.79c0.12-0.42,0.37-0.87,1.26-1.11c1.8-0.49,4.08,2.19,5.3,3.63
	c0.24,0.28,0.44,0.52,0.63,0.73c1.2,1.33,3.12,1.99,5,1.74c1.85-0.24,3.38-1.32,4.2-2.94c1.75-3.43-0.05-6.2-0.9-7.4
	c0.79,0.11,1.84,0.24,2.84-0.23c0.82-0.37,1.26-0.7,1.59-1.03c1.27-0.59,1.82-1.23,2.29-1.89c0.22-0.3,0.29-0.4,0.66-0.6
	c1.01-0.56,1.47-1.3,1.69-1.87l1.51-0.65l1.63,0.03c1.05,0.02,1.95-0.76,2.08-1.81C162.58,40.55,162.2,39.8,161.56,39.38
	 M105.78,96.6c-0.65,1.78-4.65,3.53-7.48,4.59c0.75-1.43,1.75-2.77,2.91-3.85c2.19-2.04,4.03-1.99,4.41-1.78
	C105.91,96.06,105.87,96.36,105.78,96.6z M108.79,85.59c-0.57,0.05-0.83-0.11-1.01-0.29c-1.35-1.33-1.27-5.69-1.06-8.71
	c0.98,1.28,1.79,2.75,2.29,4.25C109.96,83.67,109.14,85.32,108.79,85.59L108.79,85.59z M119.21,95.79
	c-2.86-0.89-3.73-2.51-3.73-2.94c0.29-0.5,0.57-0.61,0.82-0.66c1.87-0.32,5.37,2.28,7.7,4.22
	C122.38,96.46,120.72,96.26,119.21,95.79L119.21,95.79z"/>
<path d="M160.45,41.1l-1.84-0.41l0.94-1.68l-1.39,1.53l-3.04,1.31c-0.27-0.29-0.72-0.49-1.43-0.31c-1.86,0.46-1.91-0.53-3.97,0.22
	c-0.42,0.16-0.28-0.2-1.61,0.24c-0.93,0.3-1.55,1.86-2.17,1.99c-5.98,1.28-3.61,6.38-2.78,7.39c1.03,1.26,0.17,1.69-0.28,1.24
	c-0.71-0.71-1.59-1.87-3.27-3.53c-5.78-5.7-16.53,0.1-14.1,9.02c2.29,8.4,11.41,16.67,15.22,20.56c3.45,3.51,9.44,13.12,1.63,16.66
	c-2.66,1.21-4.93,1.3-6.87,0.81c2.73-4.44,2.57-10.07-0.65-13.41c-4.43-4.61-7.69-2.06-7.69-2.06c5.16,0,11.64,6.53,6.3,13.52
	c-0.21,0.28-0.44,0.55-0.69,0.8c-2.29-1.35-3.93-3.35-5.04-4.44c-0.49-0.49-5.01-6.25-10.63-6.12c0.49-5.98-3.83-12.05-9.76-15.31
	c-0.78-0.42-1.59-0.77-2.43-1.04c-0.58-4.47-2.78-9.51-9.61-11.43c-10.41-2.93-14.84,4.83-16.5,9.4c-1.42,3.92-5.23,21.5-5.87,24.35
	c-0.61,2.71-4.42,7.58-8.06,4.61c-2.81-2.29-1.04-7.42-0.62-9.39c0.46-2.12-1.42-4.72-4.02-4.33c-3.11,0.47-3.7,3.33-4.05,4.25
	c-0.75,1.94-2.51,0.98-2.86,0.75c-0.53-0.34-0.89-1.9-1.73-2.38c-1.22-0.7-1.15-0.32-1.53-0.55c-1.87-1.15-2.12-0.19-3.85-1.01
	c-0.54-0.26-0.96-0.23-1.28-0.09c-0.1,0.07-0.18,0.14-0.27,0.23l-2.72-1.73l-1.13-1.73l0.7,1.75l-1.92,0.17l2.05,0.29l2.69,1.7
	c-0.14,0.4-0.08,0.95,0.54,1.49c1.45,1.24,0.68,1.86,2.5,3.1c0.37,0.25,0,0.35,1.13,1.17c0.79,0.58,2.41,0.18,2.88,0.61
	c4.52,4.12,7.29-0.78,7.63-2.04c0.42-1.56,1.27-1.12,1.17-0.49c-0.17,0.99-0.6,2.38-0.97,4.72c-1.27,8.02,9.7,13.39,15.54,6.22
	c5.5-6.76,6.91-18.98,7.85-24.34c0.85-4.85,5.17-15.31,12.59-11.02c2.53,1.46,3.93,3.26,4.66,5.12c-5.2,0.37-9.68,3.77-10.53,8.34
	c-1.16,6.28,2.8,7.45,2.8,7.45c-3.01-4.19-1.47-13.26,7.33-12.99c0.35,0.01,0.7,0.04,1.05,0.09c0.23,2.65-0.43,5.14-0.68,6.69
	c-0.11,0.66-2.01,7.21,0.86,11.7c-5.39,2.21-8.92,8.51-9.4,15.08c-0.07,0.91-0.04,1.79,0.06,2.64c-3.82,2.39-7.49,6.49-6.39,13.5
	c1.67,10.68,10.57,11.48,15.42,11.08c4.15-0.34,21.72-4.2,24.57-4.81c2.72-0.58,8.73,0.86,7.55,5.41c-0.91,3.51-6.31,4.04-8.28,4.47
	c-2.12,0.47-3.7,3.26-2.26,5.46c1.72,2.63,4.57,1.97,5.55,1.92c2.08-0.12,1.94,1.87,1.88,2.29c-0.09,0.63-1.36,1.6-1.44,2.57
	c-0.12,1.4,0.19,1.18,0.14,1.62c-0.27,2.18,0.71,2.01,0.68,3.92c-0.01,0.58,0.18,0.95,0.43,1.17l0.01-0.01l0.07,0.08l0.07,0.06v0
	c0.07,0.05,0.15,0.09,0.24,0.11l-0.53,3.65l-1.11,1.75l1.31-1.36l0.94,1.68l-0.58-1.99l0.53-3.69c0.4-0.06,0.85-0.35,1.06-1.1
	c0.52-1.84,1.41-1.4,1.78-3.56c0.08-0.44,0.31-0.14,0.6-1.51c0.2-0.95-0.84-2.27-0.65-2.87c1.86-5.83-3.75-6.3-5.03-6.09
	c-1.6,0.27-1.55-0.69-0.93-0.85c0.97-0.26,2.41-0.45,4.69-1.09c7.82-2.19,8.13-14.4-0.82-16.72c-8.43-2.18-20.14,1.62-25.4,3
	c-4.76,1.25-16.07,1.68-15.27-6.86c0.27-2.9,1.32-4.93,2.71-6.37c2.51,4.57,7.46,7.22,11.97,6.09c6.2-1.56,5.6-5.65,5.6-5.65
	c-2.56,4.48-11.44,6.86-14.86-1.25c-0.14-0.32-0.25-0.66-0.36-0.99c2.31-1.31,4.85-1.75,6.36-2.17c0.69-0.19,8.22-1.3,10.75-6.51
	c4.61,3.32,11.62,3.2,17.42,0.42c0.82-0.39,1.57-0.85,2.27-1.36c3.97,2.13,9.35,3.28,14.89-1.16c8.44-6.75,4.71-14.87,1.96-18.89
	c-2.36-3.43-14.43-16.77-16.38-18.94c-1.85-2.08-3.59-8,0.95-9.24c3.5-0.95,6.64,3.47,7.99,4.97c1.46,1.61,4.67,1.59,5.86-0.75
	c1.43-2.8-0.56-4.94-1.09-5.77c-1.14-1.74,0.66-2.61,1.06-2.77c0.59-0.23,2.06,0.39,2.95-0.02c1.28-0.59,0.93-0.75,1.34-0.92
	c2.02-0.85,1.39-1.61,3.06-2.54c0.46-0.26,0.69-0.56,0.79-0.86l-0.02-0.06c0.07-0.26,0.07-0.44,0.03-0.58l2.98-1.28L160.45,41.1
	 M104.89,74.06c0.06-0.56,0.11-1.21,0.14-1.93c2.87,1.96,4.95,5.13,5.93,8.05c1.41,4.25-0.15,7.24-1.85,7.43
	C103.48,88.26,104.46,78.41,104.89,74.06L104.89,74.06z M96.78,103.91c-0.53,0.18-1.14,0.4-1.82,0.68c0.59-3.43,2.6-6.64,4.85-8.74
	c3.27-3.05,6.64-2.88,7.52-1.41C110.27,99.28,100.9,102.49,96.78,103.91z M118.6,97.75c-4.27-1.32-5.79-4.34-4.97-5.83
	c2.76-4.96,10.19,1.58,13.47,4.46c0.42,0.37,0.92,0.79,1.49,1.24C125.33,98.81,121.54,98.66,118.6,97.75z"/>
<path class="st0" d="M134.17,161.08h0.39v-1.13H135v-0.27h-1.26v0.27h0.43V161.08 M135.12,161.04v-1.33h0.59l0.21,0.9h0l0.21-0.9
	h0.57v1.33h-0.32v-1.11l-0.01,0l-0.31,1.12h-0.33l-0.29-1.13l0,0.01v1.12H135.12"/>
</svg>
