<?xml version="1.0" encoding="utf-8"?>
<!-- Generator: Adobe Illustrator 24.1.2, SVG Export Plug-In . SVG Version: 6.00 Build 0)  -->
<svg version="1.1" id="Layer_1" xmlns="http://www.w3.org/2000/svg" xmlns:xlink="http://www.w3.org/1999/xlink" x="0px" y="0px"
	 viewBox="0 0 200 200" style="enable-background:new 0 0 200 200;" xml:space="preserve">
<style type="text/css">
	.st0{fill:#66B933;}
	.st1{fill:#1428A0;}
</style>
<path class="st0" d="M108.6,102.4L108.6,102.4l0-0.1h0.1v0h-0.2v0h0L108.6,102.4 M108.7,102.4v-0.2h0.1L108.7,102.4L108.7,102.4
	l0.1-0.2h0.1v0.2h0v-0.1l0,0l0,0.1H108.7l0-0.1l0,0L108.7,102.4L108.7,102.4"/>
<path id="svg_1" class="st1" d="M143.3,105.4h-0.1l-4.3-15.1h-7v19h4.6l-0.3-15.6h0.1l4.7,15.6h6.7v-19H143L143.3,105.4z M54.2,90.3
	l-3.5,19.2h5.1l2.6-17.5h0.1l2.5,17.5h5.1l-3.5-19.2H54.2z M82.7,90.3L80.4,105h-0.1L78,90.3h-7.7l-0.4,19.2h4.7l0.1-17.3h0.1
	l3.2,17.3h4.8l3.2-17.3l0.1,0l0.1,17.3h4.7l-0.4-19.2H82.7z M39,95.3c-0.1-0.4-0.1-0.8,0-1c0.1-0.6,0.5-1.3,1.7-1.3
	c1.1,0,1.8,0.7,1.8,1.7v1.2h4.7v-1.3c0-4.2-3.7-4.8-6.4-4.8c-3.4,0-6.1,1.1-6.6,4.3c-0.1,0.8-0.2,1.6,0,2.6c0.8,3.9,7.5,5.1,8.5,7.6
	c0.2,0.5,0.1,1.1,0,1.4c-0.2,0.6-0.6,1.3-1.8,1.3c-1.2,0-1.9-0.7-1.9-1.7l0-1.9H34l0,1.5c0,4.3,3.3,5.6,6.9,5.6
	c3.4,0,6.2-1.2,6.7-4.4c0.2-1.7,0.1-2.8,0-3.2C46.7,98.7,39.6,97.5,39,95.3z M100.4,95.3c-0.1-0.4-0.1-0.8,0-1
	c0.1-0.6,0.5-1.3,1.7-1.3c1.1,0,1.7,0.7,1.7,1.7v1.2h4.7v-1.3c0-4.1-3.7-4.8-6.3-4.8c-3.3,0-6,1.1-6.5,4.2c-0.1,0.8-0.2,1.6,0,2.6
	c0.8,3.9,7.4,5,8.4,7.5c0.2,0.5,0.1,1.1,0,1.4c-0.2,0.6-0.6,1.3-1.8,1.3c-1.2,0-1.9-0.7-1.9-1.7l0-1.9h-5v1.5c0,4.2,3.3,5.5,6.8,5.5
	c3.4,0,6.2-1.2,6.6-4.3c0.2-1.6,0.1-2.7,0-3.1C108,98.7,100.9,97.5,100.4,95.3z M121.8,104.5c0,0.2,0,0.5,0,0.7
	c-0.1,0.5-0.5,1.4-1.8,1.4c-1.3,0-1.7-0.9-1.8-1.4c0-0.2,0-0.5,0-0.7V90.3h-4.8v13.8c0,0.4,0,1.1,0,1.3c0.3,3.6,3.1,4.7,6.6,4.7
	c3.5,0,6.3-1.2,6.6-4.7c0-0.2,0.1-0.9,0-1.3V90.3h-4.8L121.8,104.5L121.8,104.5z M159.3,98.7v2.8h1.9v2.8c0,0.2,0,0.5,0,0.7
	c-0.1,0.5-0.6,1.4-1.9,1.4c-1.4,0-1.8-0.9-1.9-1.4c0-0.2,0-0.5,0-0.7v-8.8c0-0.3,0-0.7,0.1-0.9c0.1-0.5,0.5-1.4,1.9-1.4
	c1.4,0,1.8,1,1.9,1.4c0.1,0.3,0.1,0.7,0.1,0.7v1.1h4.8v-0.6c0,0,0-0.7,0-1.3c-0.3-3.6-3.3-4.8-6.6-4.8c-3.3,0-6.2,1.1-6.6,4.8
	c0,0.3-0.1,0.9-0.1,1.3l0,8.1c0,0.4,0,0.6,0.1,1.3c0.3,3.5,3.3,4.8,6.6,4.8c3.3,0,6.3-1.3,6.6-4.8c0.1-0.6,0.1-0.9,0.1-1.3v-5.2
	H159.3z"/>
</svg>
