<?xml version="1.0" encoding="utf-8"?>
<!-- Generator: Adobe Illustrator 24.1.2, SVG Export Plug-In . SVG Version: 6.00 Build 0)  -->
<svg version="1.1" id="Layer_1" xmlns="http://www.w3.org/2000/svg" xmlns:xlink="http://www.w3.org/1999/xlink" x="0px" y="0px"
	 viewBox="0 0 200 200" style="enable-background:new 0 0 200 200;" xml:space="preserve">
<style type="text/css">
	.st0{fill:#66B933;}
	.st1{fill-rule:evenodd;clip-rule:evenodd;fill:#92C42F;}
	.st2{fill-rule:evenodd;clip-rule:evenodd;fill:#D12788;}
	.st3{fill-rule:evenodd;clip-rule:evenodd;fill:#FFE201;}
	.st4{fill-rule:evenodd;clip-rule:evenodd;fill:#1F4397;}
	.st5{fill-rule:evenodd;clip-rule:evenodd;}
</style>
<path class="st0" d="M134.2,161.1h0.4V160h0.4v-0.3h-1.3v0.3h0.4v1.1 M135.1,161v-1.3h0.6l0.2,0.9l0,0l0.2-0.9h0.6v1.3h-0.3v-1.1
	l0,0l-0.3,1.1h-0.3l-0.3-1.1l0,0v1.1H135.1"/>
<g>
	<path class="st1" d="M95.5,49.6c1-0.9,2.2-1.3,3.2-1.1c1.2,0.2,2.2,1.1,2.2,3.6l-1.6,16.2c-0.3,2.1-1.9,1.9-3.4,1.6
		C91.4,69,85.5,68,81,67c-2.1-0.3-2.9-2.1-1-3.7L95.5,49.6L95.5,49.6z"/>
	<path class="st2" d="M118.7,73.3c1.2-0.5,2.5,0.1,3.3,1c0.7,0.8,0.9,1.9,1.1,3c1.3,5.9,2.6,11.8,3.8,17.7c0.2,0.6-0.2,1.2-0.8,1.5
		c-1.3,0.6-2.6,0-3.7-0.7c-3.7-2.6-7.4-5.2-11.2-7.8c-1.8-1.3-2.3-2.9-0.8-4.7c2.2-2.9,4.5-5.7,6.7-8.6
		C117.6,74.1,118,73.5,118.7,73.3L118.7,73.3z"/>
	<path class="st3" d="M75.5,77.2c0.3-2,2.2-2.5,3.8-1l8.7,9.3c1.4,1.5,1.9,2-0.1,3.3l-12.3,8.1c-1.6,1.1-2.9,0.4-2.6-1.8L75.5,77.2
		L75.5,77.2z"/>
	<path class="st4" d="M96.8,94.7c2.4-2.4,4-1.1,5.7,0.8l12.3,13c2.3,2.4,1.5,4.1-0.9,4.2l-28.3-0.1c-2.1,0-2.8-2.1-1.6-3.5
		L96.8,94.7L96.8,94.7z"/>
	<path class="st5" d="M60.1,151.6c1.1,0,2.2,0,3.3,0v-5.9h11.4c3.6,0,6.7-2.1,6.7-6c0-3.9-3.1-5.9-6.7-5.9H60.1l0,2.8H75
		c1.7,0,3.1,1.3,3.1,3.1c0,1.8-1.4,3-3.1,3H62.1c-1.3,0-2,0.3-2,1.7V151.6L60.1,151.6z"/>
	<path class="st5" d="M93.5,151.6c1.1,0,2.2,0,3.3,0v-5.9h11.4c3.6,0,6.7-2.1,6.7-6c0-3.9-3.1-5.9-6.7-5.9H93.5l0,2.8h14.8
		c1.7,0,3.1,1.3,3.1,3.1c0,1.8-1.4,3-3.1,3H95.4c-1.3,0-2,0.3-2,1.7V151.6L93.5,151.6z"/>
	<polygon class="st5" points="90.7,142.8 84.3,142.8 84.3,145.5 90.7,145.5 90.7,142.8 	"/>
	<path class="st5" d="M138.6,137c0-1,0-2.1,0-3.1h-13.3c-5.9,0-8.3,2.9-8.3,8.8c0,5.8,2,8.9,8.1,8.9h13.5c0-1-0.1-2-0.1-3h-13.2
		c-3.1,0-4.8-1.1-5-4.3l0-0.1h18.3c0-0.9,0-1.9,0-2.8h-18.2l0-0.1c0-3,1.7-4.3,4.6-4.3H138.6L138.6,137z"/>
	<path class="st5" d="M163.2,151.6v-17.7c-1.1,0-2.2,0-3.3,0v14.4h-0.1c-1.1,0-1.9,0-2.7-0.9c-2.7-2.9-4.5-7-7-10.2
		c-2-2.6-3.7-3.3-7-3.3h-2.4v17.7c1.1,0,2.3,0,3.4,0v-14.4h0.1c1.8,0,2.1,0.2,3.1,1.7c1.2,1.6,2.3,3.4,3.4,5.1c1.3,2,2.9,4.4,4.7,6
		c1.5,1.3,2.9,1.7,4.9,1.7L163.2,151.6L163.2,151.6z"/>
	<polygon class="st5" points="57.7,133.8 53.2,133.9 47.2,140.5 41.2,133.9 36.8,133.9 45.2,142.7 36.9,151.6 41.1,151.6 
		47.2,144.8 53.3,151.6 57.5,151.6 49.2,142.7 57.7,133.8 	"/>
</g>
</svg>
