<?xml version="1.0" encoding="utf-8"?>
<!-- Generator: Adobe Illustrator 24.1.2, SVG Export Plug-In . SVG Version: 6.00 Build 0)  -->
<svg version="1.1" id="Layer_1" xmlns="http://www.w3.org/2000/svg" xmlns:xlink="http://www.w3.org/1999/xlink" x="0px" y="0px"
	 viewBox="0 0 50 50" style="enable-background:new 0 0 50 50;" xml:space="preserve">
<style type="text/css">
	.st0{fill:#737373;}
</style>
<path class="st0" d="M16.9,13.6c-1.9,0.4-3.4,2.1-3.4,4.2l0,3c1.1-3.4,3.8-6.1,7.2-7.2l-3,0C17.4,13.5,17.2,13.5,16.9,13.6z
	 M22.4,15c-4.2,1.1-7.5,4.8-7.7,9.4c-0.3,5.7,4.1,10.5,9.7,10.8c5.7,0.3,10.5-4.1,10.8-9.7c0.3-5.7-4.1-10.5-9.7-10.8
	C24.5,14.7,23.4,14.8,22.4,15z M29.3,13.5c3.4,1.1,6.1,3.8,7.2,7.2l0-3c0-2.3-1.9-4.2-4.2-4.2L29.3,13.5z M21.2,18.8
	c0.2,0,0.3,0,0.5,0C23,18.8,24,20,24,21.3s-1.2,2.4-2.5,2.3c-1.3-0.1-2.4-1.2-2.3-2.5C19.2,19.9,20.1,19,21.2,18.8z M28.4,19.2
	c0.2,0,0.3,0,0.5,0c1.3,0.1,2.4,1.2,2.3,2.5C31.2,23,30,24,28.7,24c-1.3-0.1-2.4-1.2-2.3-2.5C26.5,20.3,27.3,19.3,28.4,19.2z
	 M24.7,23.8c0.7-0.1,1.3,0.3,1.4,0.9c0.1,0.7-0.3,1.3-0.9,1.4c-0.7,0.1-1.3-0.3-1.4-0.9C23.7,24.6,24.1,24,24.7,23.8z M20.8,26
	c0.2,0,0.3,0,0.5,0c1.3,0.1,2.4,1.2,2.3,2.5c-0.1,1.3-1.2,2.4-2.5,2.3c-1.3-0.1-2.4-1.2-2.3-2.5C18.8,27.1,19.7,26.2,20.8,26z
	 M13.5,29.3l0,3c0,2.3,1.9,4.2,4.2,4.2l3,0C17.3,35.4,14.7,32.7,13.5,29.3z M28.1,26.4c0.2,0,0.3,0,0.5,0c1.3,0.1,2.4,1.2,2.3,2.5
	c-0.1,1.3-1.2,2.4-2.5,2.3C27,31.2,26,30,26,28.7C26.1,27.5,27,26.6,28.1,26.4z M36.5,29.3c-1.1,3.4-3.8,6.1-7.2,7.2l3,0
	c2.3,0,4.2-1.9,4.2-4.2L36.5,29.3z"/>
</svg>
