<?xml version="1.0" encoding="utf-8"?>
<!-- Generator: Adobe Illustrator 24.1.2, SVG Export Plug-In . SVG Version: 6.00 Build 0)  -->
<svg version="1.1" id="Layer_1" xmlns="http://www.w3.org/2000/svg" xmlns:xlink="http://www.w3.org/1999/xlink" x="0px" y="0px"
	 viewBox="0 0 50 50" style="enable-background:new 0 0 50 50;" xml:space="preserve">
<style type="text/css">
	.st0{fill:#737373;}
</style>
<path class="st0" d="M28.9,16.6c2.5,0,4.5,2,4.5,4.5v7.8c0,2.5-2,4.5-4.5,4.5h-7.8c-2.5,0-4.5-2-4.5-4.5v-7.8c0-2.5,2-4.5,4.5-4.5
	L28.9,16.6 M28.9,15h-7.8c-3.4,0-6.1,2.8-6.1,6.1v7.8c0,3.4,2.8,6.1,6.1,6.1h7.8c3.4,0,6.1-2.8,6.1-6.1v-7.8
	C35,17.8,32.3,15,28.9,15z"/>
<path class="st0" d="M30.4,18.5c-0.6,0-1.1,0.5-1.1,1.1s0.5,1.1,1.1,1.1s1.1-0.5,1.1-1.1S31,18.5,30.4,18.5L30.4,18.5z"/>
<path class="st0" d="M25,21.4c2,0,3.6,1.6,3.6,3.6S27,28.6,25,28.6S21.4,27,21.4,25l0,0C21.5,23,23,21.5,25,21.4 M25,19.8
	c-2.9,0-5.3,2.4-5.3,5.3s2.4,5.3,5.3,5.3s5.3-2.4,5.3-5.3S28,19.8,25,19.8L25,19.8z"/>
</svg>
