<?xml version="1.0" encoding="utf-8"?>
<!-- Generator: Adobe Illustrator 24.1.2, SVG Export Plug-In . SVG Version: 6.00 Build 0)  -->
<svg version="1.1" id="Layer_1" xmlns="http://www.w3.org/2000/svg" xmlns:xlink="http://www.w3.org/1999/xlink" x="0px" y="0px"
	 viewBox="0 0 50 50" style="enable-background:new 0 0 50 50;" xml:space="preserve">
<style type="text/css">
	.st0{fill:#737373;}
</style>
<path class="st0" d="M37.5,17.2c-0.9,0.4-1.9,0.7-2.9,0.8c1.1-0.7,1.9-1.6,2.2-2.8c-1,0.6-2.1,1-3.3,1.3c-0.9-1-2.3-1.6-3.8-1.6
	c-2.8,0-5.1,2.3-5.1,5.1c0,0.4,0.1,0.8,0.2,1.2c-4.3-0.3-8-2.3-10.6-5.4c-0.5,0.8-0.7,1.6-0.7,2.6c0,1.8,0.9,3.4,2.3,4.3
	c-0.9-0.1-1.6-0.3-2.3-0.7V22c0,2.5,1.8,4.6,4.1,5c-0.4,0.1-0.9,0.2-1.4,0.2c-0.4,0-0.7-0.1-1-0.1c0.7,2,2.5,3.5,4.8,3.6
	c-1.7,1.4-3.9,2.2-6.3,2.2c-0.4,0-0.8,0-1.2-0.1c2.3,1.5,5,2.3,7.9,2.3c9.5,0,14.6-7.8,14.6-14.6c0-0.2,0-0.5,0-0.7
	C36,19.2,36.8,18.2,37.5,17.2z"/>
</svg>
