<?xml version="1.0" encoding="utf-8"?>
<!-- Generator: Adobe Illustrator 24.1.2, SVG Export Plug-In . SVG Version: 6.00 Build 0)  -->
<svg version="1.1" id="Layer_1" xmlns="http://www.w3.org/2000/svg" xmlns:xlink="http://www.w3.org/1999/xlink" x="0px" y="0px"
	 viewBox="0 0 50 50" style="enable-background:new 0 0 50 50;" xml:space="preserve">
<style type="text/css">
	.st0{fill:#737373;}
</style>
<g>
	<g>
		<path id="WhatsApp" class="st0" d="M35,24.8c0,5.4-4.4,9.8-9.9,9.8c-1.7,0-3.4-0.5-4.8-1.3L15,35l1.8-5.3c-0.9-1.5-1.4-3.2-1.4-5
			c0-5.4,4.4-9.7,9.8-9.7S35,19.4,35,24.8z M25.1,16.5c-4.6,0-8.3,3.7-8.3,8.2c0,1.8,0.6,3.4,1.6,4.8l-1.1,3l3.1-1
			c1.3,0.9,2.9,1.4,4.5,1.4c4.6,0,8.3-3.7,8.3-8.2S29.8,16.5,25.1,16.5z M30.1,27c0-0.1-0.3-0.2-0.5-0.3c-0.3-0.1-1.4-0.7-1.6-0.8
			c-0.3-0.1-0.4-0.1-0.5,0.1c-0.2,0.3-0.7,0.8-0.8,1c-0.2,0.1-0.3,0.1-0.5,0c-0.3-0.1-1.1-0.4-2-1.1c-0.7-0.6-1.2-1.4-1.4-1.6
			c-0.1-0.3-0.1-0.4,0.1-0.5c0.1-0.1,0.3-0.3,0.4-0.5c0.1-0.1,0.1-0.3,0.3-0.4c0.1-0.2,0.1-0.3-0.1-0.5c0-0.1-0.5-1.3-0.8-1.8
			c-0.2-0.5-0.4-0.4-0.5-0.4s-0.3-0.1-0.5-0.1c-0.1,0-0.4,0.1-0.6,0.3c-0.3,0.3-0.9,0.9-0.9,2c0,1.2,0.9,2.3,0.9,2.5
			c0.1,0.1,1.7,2.6,4.1,3.6s2.4,0.6,2.9,0.6s1.5-0.5,1.6-1.1C30.2,27.5,30.2,27.1,30.1,27z"/>
	</g>
</g>
</svg>
