<?xml version="1.0" encoding="utf-8"?>
<!-- Generator: Adobe Illustrator 24.1.2, SVG Export Plug-In . SVG Version: 6.00 Build 0)  -->
<svg version="1.1" id="Layer_1" xmlns="http://www.w3.org/2000/svg" xmlns:xlink="http://www.w3.org/1999/xlink" x="0px" y="0px"
	 viewBox="0 0 50 50" style="enable-background:new 0 0 50 50;" xml:space="preserve">
<style type="text/css">
	.st0{fill:#737373;}
</style>
<path class="st0" d="M36.5,19.2c-0.3-1-1.1-1.8-2.1-2.1c-1.9-0.5-9.4-0.5-9.4-0.5s-7.5,0-9.4,0.5c-1,0.3-1.8,1.1-2.1,2.1
	C13,21.1,13,25,13,25s0,3.9,0.5,5.8c0.3,1,1.1,1.8,2.1,2.1c1.9,0.5,9.4,0.5,9.4,0.5s7.5,0,9.4-0.5c1-0.3,1.8-1.1,2.1-2.1
	C37,28.9,37,25,37,25S37,21.1,36.5,19.2L36.5,19.2z M22.6,28.6v-7.2l6.2,3.6L22.6,28.6L22.6,28.6z"/>
</svg>
